<svg width="24" height="24" viewBox="0 0 24 24" fill="none" xmlns="http://www.w3.org/2000/svg">
<path d="M12 21.25C17.1086 21.25 21.25 17.1086 21.25 12C21.25 6.89137 17.1086 2.75 12 2.75C6.89137 2.75 2.75 6.89137 2.75 12C2.75 17.1086 6.89137 21.25 12 21.25Z" stroke="black" stroke-opacity="0.5" stroke-width="1.5" stroke-linecap="round" stroke-linejoin="round"/>
<path d="M14.8289 14.828C14.2695 15.3875 13.5568 15.7686 12.7808 15.9231C12.0048 16.0775 11.2005 15.9984 10.4695 15.6956C9.73857 15.3929 9.11378 14.8802 8.67421 14.2224C8.23463 13.5646 8 12.7912 8 12C8 11.2088 8.23463 10.4354 8.67421 9.7776C9.11378 9.11977 9.73857 8.60708 10.4695 8.30437C11.2005 8.00165 12.0048 7.92251 12.7808 8.07695C13.5568 8.23139 14.2695 8.61247 14.8289 9.172" stroke="black" stroke-opacity="0.5" stroke-width="1.5" stroke-linecap="round" stroke-linejoin="round"/>
</svg>
